<?xml version="1.0" encoding="UTF-8" standalone="no"?>
<svg
   xmlns:dc="http://purl.org/dc/elements/1.1/"
   xmlns:cc="http://creativecommons.org/ns#"
   xmlns:rdf="http://www.w3.org/1999/02/22-rdf-syntax-ns#"
   xmlns:svg="http://www.w3.org/2000/svg"
   xmlns="http://www.w3.org/2000/svg"
   id="svg6"
   version="1.1"
   viewBox="0 0 46 46"
   height="46px"
   width="46px">
  <metadata
     id="metadata12">
    <rdf:RDF>
      <cc:Work
         rdf:about="">
        <dc:format>image/svg+xml</dc:format>
        <dc:type
           rdf:resource="http://purl.org/dc/dcmitype/StillImage" />
      </cc:Work>
    </rdf:RDF>
  </metadata>
  <defs
     id="defs10" />
  <g
     fill-rule="evenodd"
     fill="none"
     stroke-width="1"
     stroke="none"
     id="Landing-Page">
    <g
       fill="#FFFFFF"
       transform="translate(-101.000000, -60.000000)"
       id="Middle">
      <g
         transform="translate(101.000000, 60.000000)"
         id="Logo">
        <path
           id="Combined-Shape"
           d="M23,46 C10.2974508,46 0,35.7025492 0,23 C0,10.2974508 10.2974508,0 23,0 C35.7025492,0 46,10.2974508 46,23 C46,35.7025492 35.7025492,46 23,46 Z M23,41 C32.9411255,41 41,32.9411255 41,23 C41,13.0588745 32.9411255,5 23,5 C13.0588745,5 5,13.0588745 5,23 C5,32.9411255 13.0588745,41 23,41 Z M23,39 C14.163444,39 7,31.836556 7,23 C7,14.163444 14.163444,7 23,7 C31.836556,7 39,14.163444 39,23 C39,31.836556 31.836556,39 23,39 Z M18,21 C19.6568542,21 21,19.6568542 21,18 C21,16.3431458 19.6568542,15 18,15 C16.3431458,15 15,16.3431458 15,18 C15,19.6568542 16.3431458,21 18,21 Z M28,21 C29.6568542,21 31,19.6568542 31,18 C31,16.3431458 29.6568542,15 28,15 C26.3431458,15 25,16.3431458 25,18 C25,19.6568542 26.3431458,21 28,21 Z M18,31 C19.6568542,31 21,29.6568542 21,28 C21,26.3431458 19.6568542,25 18,25 C16.3431458,25 15,26.3431458 15,28 C15,29.6568542 16.3431458,31 18,31 Z M28,31 C29.6568542,31 31,29.6568542 31,28 C31,26.3431458 29.6568542,25 28,25 C26.3431458,25 25,26.3431458 25,28 C25,29.6568542 26.3431458,31 28,31 Z" />
      </g>
    </g>
  </g>
</svg>
