<svg xmlns="http://www.w3.org/2000/svg" xmlns:xlink="http://www.w3.org/1999/xlink" width="30" height="34" version="1.1"><rect id="backgroundrect" width="100%" height="100%" x="0" y="0" fill="none" stroke="none"/>
    
<g class="currentLayer" style=""><title>Layer 1</title><g id="Landing-Page" stroke="#94ddd9" stroke-width="1" fill="none" fill-rule="evenodd" class="" stroke-opacity="1">
        <g id="Left" stroke="#94ddd9">
            <g id="navitems" stroke="#94ddd9">
                <g id="bell" stroke="#94ddd9">
                    <path d="M16.724311400000033,4.192137469999999 C15.295842099999959,4.023102690000002 14.30170869999995,3.965600379999998 13.741911200000004,4.019630560000003 C11.515487200000052,4.234519140000003 9.701468599999998,4.846421380000002 8.299855330000014,5.85533727 C6.369623400000023,7.244765940000001 4.704225090000023,9.767295609999998 3.3036604000000125,13.4229263 C2.675616210000044,15.7217154 2.199058270000023,18.523557600000004 1.8739865850000115,21.828453100000004 C1.548914902999968,25.133348499999997 1.2575860409999677,28.5256901 1,32.0054779 C4.410163539999985,30.778379900000004 7.449868919999972,30.164830800000004 10.119116149999968,30.164830800000004 C14.122986999999966,30.164830800000004 14.296928900000012,30.164830800000004 16.436984100000018,30.164830800000004 " id="Path-2" stroke-width="2" stroke-linejoin="round" stroke="#94ddd9"/>
                    <path d="M12.688908232617223,4.115961159999998 C14.619127732617244,4.032983400000006 15.976092932617235,4.060934560000007 16.75980393261716,4.19981464 C17.141797032617205,4.267506980000007 17.509729932617233,4.348734739999998 17.86360263261713,4.443497910000005 C19.060042532617217,4.763891150000006 20.09575943261723,5.239008900000002 20.970753332617164,5.868851149999998 C22.90098523261713,7.2582798199999985 24.566383532617238,9.780809489999996 25.966948232617142,13.436440199999993 C26.594992432617232,15.735229200000006 27.071550432617187,18.537071499999996 27.396622032617188,21.841966900000003 C27.721693732617155,25.146862400000003 28.013022632617208,28.539203999999998 28.270608632617154,32.018991799999995 C24.8604451326172,30.791893700000003 21.8207397326172,30.178344699999997 19.151492532617226,30.178344699999997 C15.147621632617188,30.178344699999997 14.973679832617222,30.178344699999997 12.833624532617137,30.178344699999997 " id="Path-2" stroke-width="2" stroke-linejoin="round" stroke="#94ddd9"/>
                    <path d="M11.685948499999995,30.389391599999996 C11.685948499999995,30.724567899999997 12.077324200000021,32.1344969 12.688909800000033,32.5228637 C13.300495400000045,32.9112304 13.303040399999986,33.1858357 15.556381800000054,33.1858357 " id="Path-3" stroke="#94ddd9"/>
                    <path d="M11,1 C11,1.3351762690000013 11.391375599999947,2.7451052999999987 12.002961300000038,3.13347203 C12.61454690000005,3.5218387600000014 12.617091899999991,3.7964440699999997 14.870433299999945,3.7964440699999997 " id="Path-3" stroke-width="2" stroke="#94ddd9"/>
                    <path d="M14,1 C14,1.3351762690000013 14.391375599999947,2.7451052999999987 15.002961300000038,3.13347203 C15.61454690000005,3.5218387600000014 15.617091899999991,3.7964440699999997 17.870433299999945,3.7964440699999997 " id="Path-3" stroke-width="2" stroke="#94ddd9"/>
                    <path d="M18.704059294287163,30.3859111 C18.704059294287163,30.721087400000002 18.312683694287102,32.13101639999999 17.70109809428709,32.5193831 C17.089512494287078,32.9077499 17.086967494287137,33.1823552 14.833625994287104,33.1823552 " id="Path-3" fill="#D8D8D8" stroke="#94ddd9"/>
                </g>
            </g>
        </g>
    </g></g></svg>