
<svg width="30px" height="34px" viewBox="0 0 30 34" version="1.1" xmlns="http://www.w3.org/2000/svg" xmlns:xlink="http://www.w3.org/1999/xlink">
    <g id="Landing-Page" stroke="none" stroke-width="1" fill="none" fill-rule="evenodd">
        <g id="Left" transform="translate(-970.000000, -62.000000)" stroke="#FFFFFF">
            <g id="navitems" transform="translate(851.000000, 61.000000)">
                <g id="bell" transform="translate(120.000000, 2.000000)">
                    <path d="M15.7243114,3.19213747 C14.2958421,3.02310269 13.3017087,2.96560038 12.7419112,3.01963056 C10.5154872,3.23451914 8.7014686,3.84642138 7.29985533,4.85533727 C5.3696234,6.24476594 3.70422509,8.76729561 2.3036604,12.4229263 C1.67561621,14.7217154 1.19905827,17.5235576 0.873986585,20.8284531 C0.548914903,24.1333485 0.257586041,27.5256901 -2.84217094e-14,31.0054779 C3.41016354,29.7783799 6.44986892,29.1648308 9.11911615,29.1648308 C13.122987,29.1648308 13.2969289,29.1648308 15.4369841,29.1648308" id="Path-2" stroke-width="2" stroke-linejoin="round"></path>
                    <path d="M27.2706102,3.11596116 C25.3403907,3.0329834 23.9834255,3.06093456 23.1997145,3.19981464 C22.8177214,3.26750698 22.4497885,3.34873474 22.0959158,3.44349791 C20.8994759,3.76389115 19.863759,4.2390089 18.9887651,4.86885115 C17.0585332,6.25827982 15.3931349,8.78080949 13.9925702,12.4364402 C13.364526,14.7352292 12.887968,17.5370715 12.5628964,20.8419669 C12.2378247,24.1468624 11.9464958,27.539204 11.6889098,31.0189918 C15.0990733,29.7918937 18.1387787,29.1783447 20.8080259,29.1783447 C24.8118968,29.1783447 24.9858386,29.1783447 27.1258939,29.1783447" id="Path-2" stroke-width="2" stroke-linejoin="round" transform="translate(19.479760, 17.044200) scale(-1, 1) translate(-19.479760, -17.044200) "></path>
                    <path d="M10.6859485,29.3893916 C10.6859485,29.7245679 11.0773242,31.1344969 11.6889098,31.5228637 C12.3004954,31.9112304 12.3030404,32.1858357 14.5563818,32.1858357" id="Path-3"></path>
                    <path d="M10,-4.4408921e-16 C10,0.335176269 10.3913756,1.7451053 11.0029613,2.13347203 C11.6145469,2.52183876 11.6170919,2.79644407 13.8704333,2.79644407" id="Path-3" stroke-width="2" transform="translate(11.935217, 1.398222) scale(1, -1) translate(-11.935217, -1.398222) "></path>
                    <path d="M13,-4.4408921e-16 C13,0.335176269 13.3913756,1.7451053 14.0029613,2.13347203 C14.6145469,2.52183876 14.6170919,2.79644407 16.8704333,2.79644407" id="Path-3" stroke-width="2" transform="translate(14.935217, 1.398222) scale(-1, -1) translate(-14.935217, -1.398222) "></path>
                    <path d="M13.8336261,29.3859111 C13.8336261,29.7210874 14.2250017,31.1310164 14.8365873,31.5193831 C15.4481729,31.9077499 15.4507179,32.1823552 17.7040594,32.1823552" id="Path-3" fill="#D8D8D8" transform="translate(15.768843, 30.784133) scale(-1, 1) translate(-15.768843, -30.784133) "></path>
                </g>
            </g>
        </g>
    </g>
</svg>